<svg xmlns="http://www.w3.org/2000/svg" xmlns:xlink="http://www.w3.org/1999/xlink" width="500" zoomAndPan="magnify" viewBox="0 0 375 374.999991" height="500" preserveAspectRatio="xMidYMid meet" version="1.0"><defs><g/><clipPath id="6145a18d74"><path d="M 260 67 L 345 67 L 345 153 L 260 153 Z M 260 67 " clip-rule="nonzero"/></clipPath><clipPath id="611ff721c9"><path d="M 282.710938 54.199219 L 366.882812 80.09375 L 344.710938 152.160156 L 260.539062 126.265625 Z M 282.710938 54.199219 " clip-rule="nonzero"/></clipPath><clipPath id="ba0688b85f"><path d="M 324.792969 67.144531 L 344.707031 152.15625 L 260.539062 126.265625 Z M 324.792969 67.144531 " clip-rule="nonzero"/></clipPath><clipPath id="b11b234ef6"><path d="M 174 69 L 261 69 L 261 153 L 174 153 Z M 174 69 " clip-rule="nonzero"/></clipPath><clipPath id="a396dc6423"><path d="M 158.546875 78.453125 L 244.625 59.851562 L 260.550781 133.546875 L 174.476562 152.148438 Z M 158.546875 78.453125 " clip-rule="nonzero"/></clipPath><clipPath id="39dd9c1f30"><path d="M 201.585938 69.152344 L 260.546875 133.546875 L 174.476562 152.148438 Z M 201.585938 69.152344 " clip-rule="nonzero"/></clipPath><clipPath id="a001685295"><path d="M 296 91 L 324 91 L 324 119 L 296 119 Z M 296 91 " clip-rule="nonzero"/></clipPath><clipPath id="b2e954fbc9"><path d="M 303.808594 87.53125 L 330.691406 95.804688 L 323.609375 118.820312 L 296.726562 110.550781 Z M 303.808594 87.53125 " clip-rule="nonzero"/></clipPath><clipPath id="e6204e8111"><path d="M 317.25 91.667969 L 323.609375 118.820312 L 296.726562 110.550781 Z M 317.25 91.667969 " clip-rule="nonzero"/></clipPath><clipPath id="c7499f7b10"><path d="M 199 91 L 227 91 L 227 119 L 199 119 Z M 199 91 " clip-rule="nonzero"/></clipPath><clipPath id="3ede527bb0"><path d="M 192.824219 94.894531 L 219.96875 87.523438 L 226.277344 110.765625 L 199.132812 118.136719 Z M 192.824219 94.894531 " clip-rule="nonzero"/></clipPath><clipPath id="841c1ba2bc"><path d="M 206.394531 91.210938 L 226.277344 110.765625 L 199.132812 118.136719 Z M 206.394531 91.210938 " clip-rule="nonzero"/></clipPath><clipPath id="ab6f4ab5e0"><path d="M 9 242 L 203 242 L 203 293 L 9 293 Z M 9 242 " clip-rule="nonzero"/></clipPath><clipPath id="9ea4b18e54"><path d="M 40.664062 361.054688 L 0.296875 258.613281 L 168.589844 192.292969 L 208.957031 294.734375 Z M 40.664062 361.054688 " clip-rule="nonzero"/></clipPath><clipPath id="d734e1cbc4"><path d="M 40.664062 361.054688 L 0.296875 258.613281 L 168.589844 192.292969 L 208.957031 294.734375 Z M 40.664062 361.054688 " clip-rule="nonzero"/></clipPath><clipPath id="dd179a7ffb"><path d="M 226.273438 124.582031 L 237.121094 124.582031 L 237.121094 135.429688 L 226.273438 135.429688 Z M 226.273438 124.582031 " clip-rule="nonzero"/></clipPath><clipPath id="fbad240dcd"><path d="M 231.695312 124.582031 C 228.699219 124.582031 226.273438 127.007812 226.273438 130.003906 C 226.273438 133 228.699219 135.429688 231.695312 135.429688 C 234.691406 135.429688 237.121094 133 237.121094 130.003906 C 237.121094 127.007812 234.691406 124.582031 231.695312 124.582031 Z M 231.695312 124.582031 " clip-rule="nonzero"/></clipPath><clipPath id="6f1eb629db"><path d="M 285.207031 123.902344 L 296.730469 123.902344 L 296.730469 135.429688 L 285.207031 135.429688 Z M 285.207031 123.902344 " clip-rule="nonzero"/></clipPath><clipPath id="a6a8c3fec9"><path d="M 290.96875 123.902344 C 287.785156 123.902344 285.207031 126.484375 285.207031 129.664062 C 285.207031 132.847656 287.785156 135.429688 290.96875 135.429688 C 294.152344 135.429688 296.730469 132.847656 296.730469 129.664062 C 296.730469 126.484375 294.152344 123.902344 290.96875 123.902344 Z M 290.96875 123.902344 " clip-rule="nonzero"/></clipPath><clipPath id="82ede08bf6"><path d="M 202 155 L 232 155 L 232 166.707031 L 202 166.707031 Z M 202 155 " clip-rule="nonzero"/></clipPath><clipPath id="12a2032a67"><path d="M 287 155 L 317 155 L 317 166.707031 L 287 166.707031 Z M 287 155 " clip-rule="nonzero"/></clipPath></defs><g fill="#c70039" fill-opacity="1"><g transform="translate(143.570297, 319.663346)"><g><path d="M 9.828125 -104.90625 C 9.828125 -125.570312 14.296875 -144 23.234375 -160.1875 C 32.179688 -176.382812 44.648438 -189.003906 60.640625 -198.046875 C 76.640625 -207.085938 94.773438 -211.609375 115.046875 -211.609375 C 139.878906 -211.609375 161.140625 -205.050781 178.828125 -191.9375 C 196.515625 -178.820312 208.335938 -160.941406 214.296875 -138.296875 L 158.265625 -138.296875 C 154.085938 -147.035156 148.171875 -153.691406 140.515625 -158.265625 C 132.867188 -162.835938 124.179688 -165.125 114.453125 -165.125 C 98.753906 -165.125 86.035156 -159.65625 76.296875 -148.71875 C 66.566406 -137.789062 61.703125 -123.1875 61.703125 -104.90625 C 61.703125 -86.625 66.566406 -72.019531 76.296875 -61.09375 C 86.035156 -50.164062 98.753906 -44.703125 114.453125 -44.703125 C 124.179688 -44.703125 132.867188 -46.988281 140.515625 -51.5625 C 148.171875 -56.132812 154.085938 -62.789062 158.265625 -71.53125 L 214.296875 -71.53125 C 208.335938 -48.875 196.515625 -31.039062 178.828125 -18.03125 C 161.140625 -5.019531 139.878906 1.484375 115.046875 1.484375 C 94.773438 1.484375 76.640625 -3.03125 60.640625 -12.0625 C 44.648438 -21.101562 32.179688 -33.671875 23.234375 -49.765625 C 14.296875 -65.867188 9.828125 -84.25 9.828125 -104.90625 Z M 9.828125 -104.90625 "/></g></g></g><g clip-path="url(#6145a18d74)"><g clip-path="url(#611ff721c9)"><g clip-path="url(#ba0688b85f)"><path fill="#c70039" d="M 282.710938 54.199219 L 366.882812 80.09375 L 344.710938 152.160156 L 260.539062 126.265625 Z M 282.710938 54.199219 " fill-opacity="1" fill-rule="nonzero"/></g></g></g><g clip-path="url(#b11b234ef6)"><g clip-path="url(#a396dc6423)"><g clip-path="url(#39dd9c1f30)"><path fill="#c70039" d="M 158.546875 78.453125 L 244.625 59.851562 L 260.550781 133.546875 L 174.476562 152.148438 Z M 158.546875 78.453125 " fill-opacity="1" fill-rule="nonzero"/></g></g></g><g clip-path="url(#a001685295)"><g clip-path="url(#b2e954fbc9)"><g clip-path="url(#e6204e8111)"><path fill="#ffffff" d="M 303.808594 87.53125 L 330.691406 95.804688 L 323.609375 118.820312 L 296.726562 110.550781 Z M 303.808594 87.53125 " fill-opacity="1" fill-rule="nonzero"/></g></g></g><g clip-path="url(#c7499f7b10)"><g clip-path="url(#3ede527bb0)"><g clip-path="url(#841c1ba2bc)"><path fill="#ffffff" d="M 192.824219 94.894531 L 219.96875 87.523438 L 226.277344 110.765625 L 199.132812 118.136719 Z M 192.824219 94.894531 " fill-opacity="1" fill-rule="nonzero"/></g></g></g><g clip-path="url(#ab6f4ab5e0)"><g clip-path="url(#9ea4b18e54)"><g clip-path="url(#d734e1cbc4)"><path fill="#c70039" d="M 202.203125 279.476562 C 177.296875 307.210938 133.472656 285.199219 106.625 273.035156 C 74.554688 258.105469 45.28125 253.789062 16.46875 276.859375 C 14.316406 278.398438 11.808594 280.761719 9.890625 282.898438 C 18.367188 255.4375 52.511719 237.15625 80.695312 243.96875 C 114.46875 252.714844 143.285156 275.128906 178.503906 280.546875 C 187.074219 281.304688 196.472656 282.421875 201.984375 275.425781 " fill-opacity="1" fill-rule="nonzero"/></g></g></g><g clip-path="url(#dd179a7ffb)"><g clip-path="url(#fbad240dcd)"><path fill="#ffffff" d="M 226.273438 124.582031 L 237.121094 124.582031 L 237.121094 135.429688 L 226.273438 135.429688 Z M 226.273438 124.582031 " fill-opacity="1" fill-rule="nonzero"/></g></g><g clip-path="url(#6f1eb629db)"><g clip-path="url(#a6a8c3fec9)"><path fill="#ffffff" d="M 285.207031 123.902344 L 296.730469 123.902344 L 296.730469 135.429688 L 285.207031 135.429688 Z M 285.207031 123.902344 " fill-opacity="1" fill-rule="nonzero"/></g></g><path fill="#ffffff" d="M 272.59375 137.625 C 274.023438 130.011719 246.480469 131.390625 246.871094 136.554688 C 247.167969 140.515625 255.023438 150.535156 259.019531 150.925781 C 263.660156 151.378906 271.820312 141.789062 272.59375 137.625 Z M 272.59375 137.625 " fill-opacity="1" fill-rule="nonzero"/><g clip-path="url(#82ede08bf6)"><path fill="#ffffff" d="M 228.0625 158.042969 C 220.613281 160.515625 206 165.226562 204.632812 165.824219 C 203.289062 166.40625 201.039062 165.597656 204.941406 163.859375 C 213.484375 160.054688 229.582031 154.53125 231.726562 155.851562 C 232.960938 156.601562 229.441406 157.589844 228.0625 158.042969 Z M 228.0625 158.042969 " fill-opacity="1" fill-rule="nonzero"/></g><path fill="#ffffff" d="M 227.382812 144.039062 C 219.78125 142.097656 204.929688 138.183594 203.457031 137.945312 C 202.003906 137.707031 200.550781 135.816406 204.777344 136.460938 C 214.019531 137.851562 230.546875 141.894531 231.640625 144.15625 C 232.273438 145.464844 228.785156 144.394531 227.382812 144.039062 Z M 227.382812 144.039062 " fill-opacity="1" fill-rule="nonzero"/><path fill="#ffffff" d="M 220.863281 150.925781 C 213.007812 151.058594 197.671875 151.175781 196.175781 151.332031 C 194.710938 151.484375 192.820312 150.035156 197.054688 149.546875 C 206.347656 148.464844 223.359375 148.035156 225.003906 149.925781 C 225.953125 151.023438 222.300781 150.902344 220.863281 150.925781 Z M 220.863281 150.925781 " fill-opacity="1" fill-rule="nonzero"/><g clip-path="url(#12a2032a67)"><path fill="#ffffff" d="M 291.132812 158.113281 C 298.578125 160.601562 313.167969 165.347656 314.546875 165.941406 C 315.890625 166.539062 318.140625 165.714844 314.25 163.980469 C 305.71875 160.148438 289.632812 154.601562 287.480469 155.914062 C 286.242188 156.660156 289.75 157.660156 291.132812 158.113281 Z M 291.132812 158.113281 " fill-opacity="1" fill-rule="nonzero"/></g><path fill="#ffffff" d="M 291.847656 144.109375 C 299.460938 142.195312 314.308594 138.316406 315.785156 138.078125 C 317.234375 137.851562 318.6875 135.960938 314.464844 136.578125 C 305.207031 137.957031 288.667969 141.957031 287.574219 144.214844 C 286.945312 145.523438 290.441406 144.464844 291.847656 144.109375 Z M 291.847656 144.109375 " fill-opacity="1" fill-rule="nonzero"/><path fill="#ffffff" d="M 298.355469 151.011719 C 306.207031 151.152344 321.542969 151.308594 323.042969 151.472656 C 324.503906 151.628906 326.398438 150.1875 322.160156 149.691406 C 312.871094 148.59375 295.867188 148.117188 294.203125 150.011719 C 293.25 151.09375 296.902344 150.988281 298.355469 151.011719 Z M 298.355469 151.011719 " fill-opacity="1" fill-rule="nonzero"/></svg>