<svg xmlns="http://www.w3.org/2000/svg" xmlns:xlink="http://www.w3.org/1999/xlink" width="500" zoomAndPan="magnify" viewBox="0 0 375 374.999991" height="500" preserveAspectRatio="xMidYMid meet" version="1.0"><defs><g/><clipPath id="b18aec0e80"><path d="M 309 98 L 366 98 L 366 155 L 309 155 Z M 309 98 " clip-rule="nonzero"/></clipPath><clipPath id="e59c9071ee"><path d="M 324.382812 89.808594 L 380.332031 107.019531 L 365.597656 154.925781 L 309.644531 137.710938 Z M 324.382812 89.808594 " clip-rule="nonzero"/></clipPath><clipPath id="11368d908b"><path d="M 352.355469 98.414062 L 365.59375 154.925781 L 309.644531 137.710938 Z M 352.355469 98.414062 " clip-rule="nonzero"/></clipPath><clipPath id="22b70cfcf0"><path d="M 252 99 L 310 99 L 310 155 L 252 155 Z M 252 99 " clip-rule="nonzero"/></clipPath><clipPath id="514e3146b0"><path d="M 241.847656 105.929688 L 299.066406 93.5625 L 309.652344 142.554688 L 252.433594 154.917969 Z M 241.847656 105.929688 " clip-rule="nonzero"/></clipPath><clipPath id="881c35d5fd"><path d="M 270.453125 99.746094 L 309.648438 142.554688 L 252.433594 154.917969 Z M 270.453125 99.746094 " clip-rule="nonzero"/></clipPath><clipPath id="e7d12e4973"><path d="M 333 114 L 352 114 L 352 133 L 333 133 Z M 333 114 " clip-rule="nonzero"/></clipPath><clipPath id="ceac704bcd"><path d="M 338.40625 111.964844 L 356.277344 117.464844 L 351.570312 132.765625 L 333.699219 127.265625 Z M 338.40625 111.964844 " clip-rule="nonzero"/></clipPath><clipPath id="27f6d1f8a0"><path d="M 347.339844 114.714844 L 351.570312 132.765625 L 333.699219 127.265625 Z M 347.339844 114.714844 " clip-rule="nonzero"/></clipPath><clipPath id="d917c6e78d"><path d="M 268 114 L 287 114 L 287 133 L 268 133 Z M 268 114 " clip-rule="nonzero"/></clipPath><clipPath id="d408c0ca9d"><path d="M 264.628906 116.859375 L 282.675781 111.960938 L 286.871094 127.410156 L 268.824219 132.308594 Z M 264.628906 116.859375 " clip-rule="nonzero"/></clipPath><clipPath id="a718b35e4c"><path d="M 273.652344 114.410156 L 286.867188 127.410156 L 268.824219 132.308594 Z M 273.652344 114.410156 " clip-rule="nonzero"/></clipPath><clipPath id="b94348a5a0"><path d="M 143 215 L 271 215 L 271 249 L 143 249 Z M 143 215 " clip-rule="nonzero"/></clipPath><clipPath id="5ecd35e576"><path d="M 163.484375 293.785156 L 136.648438 225.691406 L 248.519531 181.605469 L 275.355469 249.699219 Z M 163.484375 293.785156 " clip-rule="nonzero"/></clipPath><clipPath id="caa40ee59b"><path d="M 163.484375 293.785156 L 136.648438 225.691406 L 248.519531 181.605469 L 275.355469 249.699219 Z M 163.484375 293.785156 " clip-rule="nonzero"/></clipPath><clipPath id="2e48f602ec"><path d="M 286.867188 136.59375 L 294.078125 136.59375 L 294.078125 143.804688 L 286.867188 143.804688 Z M 286.867188 136.59375 " clip-rule="nonzero"/></clipPath><clipPath id="dc7a970029"><path d="M 290.472656 136.59375 C 288.480469 136.59375 286.867188 138.207031 286.867188 140.199219 C 286.867188 142.191406 288.480469 143.804688 290.472656 143.804688 C 292.460938 143.804688 294.078125 142.191406 294.078125 140.199219 C 294.078125 138.207031 292.460938 136.59375 290.472656 136.59375 Z M 290.472656 136.59375 " clip-rule="nonzero"/></clipPath><clipPath id="adb16aaaae"><path d="M 326.039062 136.140625 L 333.703125 136.140625 L 333.703125 143.804688 L 326.039062 143.804688 Z M 326.039062 136.140625 " clip-rule="nonzero"/></clipPath><clipPath id="64776482b3"><path d="M 329.871094 136.140625 C 327.757812 136.140625 326.039062 137.855469 326.039062 139.972656 C 326.039062 142.089844 327.757812 143.804688 329.871094 143.804688 C 331.988281 143.804688 333.703125 142.089844 333.703125 139.972656 C 333.703125 137.855469 331.988281 136.140625 329.871094 136.140625 Z M 329.871094 136.140625 " clip-rule="nonzero"/></clipPath><clipPath id="9d93a047d4"><path d="M 271 157 L 291 157 L 291 164.59375 L 271 164.59375 Z M 271 157 " clip-rule="nonzero"/></clipPath><clipPath id="49509e49c8"><path d="M 327 157 L 347 157 L 347 164.59375 L 327 164.59375 Z M 327 157 " clip-rule="nonzero"/></clipPath></defs><g fill="#c70039" fill-opacity="1"><g transform="translate(2.137909, 266.271498)"><g><path d="M 116.296875 -139.671875 L 116.296875 -108.765625 L 79.046875 -108.765625 L 79.046875 0 L 40.21875 0 L 40.21875 -108.765625 L 3.375 -108.765625 L 3.375 -139.671875 Z M 116.296875 -139.671875 "/></g></g></g><g fill="#c70039" fill-opacity="1"><g transform="translate(231.890161, 266.271498)"><g><path d="M 6.53125 -69.734375 C 6.53125 -83.472656 9.503906 -95.722656 15.453125 -106.484375 C 21.398438 -117.253906 29.6875 -125.644531 40.3125 -131.65625 C 50.945312 -137.664062 63 -140.671875 76.46875 -140.671875 C 92.976562 -140.671875 107.113281 -136.3125 118.875 -127.59375 C 130.632812 -118.875 138.492188 -106.988281 142.453125 -91.9375 L 105.203125 -91.9375 C 102.429688 -97.738281 98.5 -102.160156 93.40625 -105.203125 C 88.320312 -108.242188 82.546875 -109.765625 76.078125 -109.765625 C 65.640625 -109.765625 57.1875 -106.128906 50.71875 -98.859375 C 44.25 -91.597656 41.015625 -81.890625 41.015625 -69.734375 C 41.015625 -57.585938 44.25 -47.878906 50.71875 -40.609375 C 57.1875 -33.347656 65.640625 -29.71875 76.078125 -29.71875 C 82.546875 -29.71875 88.320312 -31.234375 93.40625 -34.265625 C 98.5 -37.304688 102.429688 -41.734375 105.203125 -47.546875 L 142.453125 -47.546875 C 138.492188 -32.492188 130.632812 -20.640625 118.875 -11.984375 C 107.113281 -3.335938 92.976562 0.984375 76.46875 0.984375 C 63 0.984375 50.945312 -2.015625 40.3125 -8.015625 C 29.6875 -14.023438 21.398438 -22.378906 15.453125 -33.078125 C 9.503906 -43.785156 6.53125 -56.003906 6.53125 -69.734375 Z M 6.53125 -69.734375 "/></g></g></g><g clip-path="url(#b18aec0e80)"><g clip-path="url(#e59c9071ee)"><g clip-path="url(#11368d908b)"><path fill="#c70039" d="M 324.382812 89.808594 L 380.332031 107.019531 L 365.597656 154.925781 L 309.644531 137.710938 Z M 324.382812 89.808594 " fill-opacity="1" fill-rule="nonzero"/></g></g></g><g clip-path="url(#22b70cfcf0)"><g clip-path="url(#514e3146b0)"><g clip-path="url(#881c35d5fd)"><path fill="#c70039" d="M 241.847656 105.929688 L 299.066406 93.5625 L 309.652344 142.554688 L 252.433594 154.917969 Z M 241.847656 105.929688 " fill-opacity="1" fill-rule="nonzero"/></g></g></g><g clip-path="url(#e7d12e4973)"><g clip-path="url(#ceac704bcd)"><g clip-path="url(#27f6d1f8a0)"><path fill="#ffffff" d="M 338.40625 111.964844 L 356.277344 117.464844 L 351.570312 132.765625 L 333.699219 127.265625 Z M 338.40625 111.964844 " fill-opacity="1" fill-rule="nonzero"/></g></g></g><g clip-path="url(#d917c6e78d)"><g clip-path="url(#d408c0ca9d)"><g clip-path="url(#a718b35e4c)"><path fill="#ffffff" d="M 264.628906 116.859375 L 282.675781 111.960938 L 286.871094 127.410156 L 268.824219 132.308594 Z M 264.628906 116.859375 " fill-opacity="1" fill-rule="nonzero"/></g></g></g><g clip-path="url(#b94348a5a0)"><g clip-path="url(#5ecd35e576)"><g clip-path="url(#caa40ee59b)"><path fill="#c70039" d="M 270.867188 239.558594 C 254.308594 257.992188 225.175781 243.359375 207.332031 235.277344 C 186.011719 225.351562 166.554688 222.480469 147.402344 237.820312 C 145.972656 238.839844 144.300781 240.414062 143.027344 241.832031 C 148.664062 223.578125 171.359375 211.425781 190.09375 215.953125 C 212.542969 221.769531 231.703125 236.667969 255.113281 240.269531 C 260.808594 240.773438 267.054688 241.515625 270.722656 236.867188 " fill-opacity="1" fill-rule="nonzero"/></g></g></g><g clip-path="url(#2e48f602ec)"><g clip-path="url(#dc7a970029)"><path fill="#ffffff" d="M 286.867188 136.59375 L 294.078125 136.59375 L 294.078125 143.804688 L 286.867188 143.804688 Z M 286.867188 136.59375 " fill-opacity="1" fill-rule="nonzero"/></g></g><g clip-path="url(#adb16aaaae)"><g clip-path="url(#64776482b3)"><path fill="#ffffff" d="M 326.039062 136.140625 L 333.703125 136.140625 L 333.703125 143.804688 L 326.039062 143.804688 Z M 326.039062 136.140625 " fill-opacity="1" fill-rule="nonzero"/></g></g><path fill="#ffffff" d="M 317.65625 145.265625 C 318.605469 140.203125 300.296875 141.121094 300.558594 144.550781 C 300.757812 147.1875 305.976562 153.84375 308.632812 154.105469 C 311.71875 154.40625 317.144531 148.03125 317.65625 145.265625 Z M 317.65625 145.265625 " fill-opacity="1" fill-rule="nonzero"/><g clip-path="url(#9d93a047d4)"><path fill="#ffffff" d="M 288.054688 158.835938 C 283.101562 160.480469 273.390625 163.613281 272.480469 164.007812 C 271.585938 164.394531 270.09375 163.859375 272.6875 162.703125 C 278.367188 160.171875 289.066406 156.503906 290.488281 157.378906 C 291.3125 157.878906 288.972656 158.535156 288.054688 158.835938 Z M 288.054688 158.835938 " fill-opacity="1" fill-rule="nonzero"/></g><path fill="#ffffff" d="M 287.601562 149.527344 C 282.550781 148.238281 272.679688 145.636719 271.699219 145.476562 C 270.734375 145.320312 269.769531 144.0625 272.574219 144.488281 C 278.722656 145.414062 289.707031 148.101562 290.433594 149.605469 C 290.855469 150.476562 288.535156 149.765625 287.601562 149.527344 Z M 287.601562 149.527344 " fill-opacity="1" fill-rule="nonzero"/><path fill="#ffffff" d="M 283.269531 154.105469 C 278.050781 154.191406 267.855469 154.273438 266.859375 154.375 C 265.886719 154.476562 264.628906 153.511719 267.441406 153.1875 C 273.621094 152.46875 284.929688 152.183594 286.019531 153.441406 C 286.652344 154.167969 284.226562 154.089844 283.269531 154.105469 Z M 283.269531 154.105469 " fill-opacity="1" fill-rule="nonzero"/><g clip-path="url(#49509e49c8)"><path fill="#ffffff" d="M 329.980469 158.882812 C 334.929688 160.535156 344.628906 163.691406 345.542969 164.085938 C 346.4375 164.484375 347.933594 163.9375 345.347656 162.78125 C 339.675781 160.234375 328.984375 156.550781 327.550781 157.421875 C 326.730469 157.917969 329.0625 158.582031 329.980469 158.882812 Z M 329.980469 158.882812 " fill-opacity="1" fill-rule="nonzero"/></g><path fill="#ffffff" d="M 330.453125 149.574219 C 335.515625 148.300781 345.386719 145.722656 346.367188 145.566406 C 347.332031 145.414062 348.296875 144.15625 345.488281 144.566406 C 339.335938 145.484375 328.34375 148.144531 327.613281 149.644531 C 327.195312 150.515625 329.519531 149.8125 330.453125 149.574219 Z M 330.453125 149.574219 " fill-opacity="1" fill-rule="nonzero"/><path fill="#ffffff" d="M 334.78125 154.160156 C 340 154.257812 350.195312 154.359375 351.191406 154.46875 C 352.164062 154.574219 353.421875 153.617188 350.605469 153.285156 C 344.429688 152.554688 333.128906 152.238281 332.019531 153.496094 C 331.386719 154.21875 333.816406 154.144531 334.78125 154.160156 Z M 334.78125 154.160156 " fill-opacity="1" fill-rule="nonzero"/><g fill="#c70039" fill-opacity="1"><g transform="translate(106.684596, 266.271498)"><g><path d="M 136.109375 -139.671875 L 136.109375 0 L 97.28125 0 L 97.28125 -56.0625 L 49.921875 -56.0625 L 49.921875 0 L 11.09375 0 L 11.09375 -139.671875 L 49.921875 -139.671875 L 49.921875 -87.171875 L 97.28125 -87.171875 L 97.28125 -139.671875 Z M 136.109375 -139.671875 "/></g></g></g></svg>